<svg preserveAspectRatio="none" width="100%" height="100%" overflow="visible" style="display: block;" viewBox="0 0 161 19" fill="none" xmlns="http://www.w3.org/2000/svg">
<g id="6553cf69648c427a4cd53fe8_logo_wordmark.svg" clip-path="url(#clip0_6_675)">
<path id="Vector" d="M12.1005 11.1363L5.089 0.809509H0L11.8317 18.1905H16.1618V0.809509H12.1005V11.1363Z" fill="var(--fill-0, #333333)"/>
<path id="Vector_2" d="M25.6385 11.3159H34.2481V7.54029H25.6385V4.58509H34.6648V0.809509H21.5881V18.1905H34.76V14.4139H25.6385V11.3159Z" fill="var(--fill-0, #333333)"/>
<path id="Vector_3" d="M56.5842 12.6174L53.1429 0.809509H48.9189L45.4776 12.6174L42.1683 0.809509H37.9513L43.1415 18.1905H47.7057L51.0012 7.204L54.2966 18.1905H58.8618L64.051 0.809509H59.8935L56.5842 12.6174Z" fill="var(--fill-0, #333333)"/>
<path id="Vector_4" d="M80.5987 7.6762L79.6573 7.52144C77.6753 7.20301 76.5275 6.84489 76.5275 5.95605C76.5275 4.96404 77.6356 4.32321 79.3498 4.32321C80.8815 4.32321 82.4449 4.79441 83.919 5.69813L86.0925 2.50485L85.8266 2.34712C83.674 1.06842 81.7147 0.523811 79.2784 0.523811C74.4413 0.523811 72.2768 3.35897 72.2768 6.16933C72.2768 8.9797 74.0386 10.7127 77.6644 11.3L78.7199 11.4657C81.1314 11.8615 81.9459 12.2632 81.9459 13.0559C81.9459 14.1917 80.4866 14.6996 79.0413 14.6996C77.2328 14.6996 75.3341 14.0578 73.9632 12.9815L73.6477 12.7335L71.4484 15.9634L71.7837 16.2303C73.5356 17.6439 76.2448 18.4881 79.0304 18.4881C82.6046 18.4881 86.2105 16.6985 86.2105 12.6997C86.2105 9.9598 84.3227 8.27041 80.5997 7.67719L80.5987 7.6762Z" fill="var(--fill-0, #333333)"/>
<path id="Vector_5" d="M88.7689 4.64462H93.9313V18.1905H97.9797V4.64462H103.141V0.809509H88.7689V4.64462Z" fill="var(--fill-0, #333333)"/>
<path id="Vector_6" d="M114.233 0.5C108.956 0.5 105.126 4.28451 105.126 9.4995C105.126 14.7145 108.956 18.5 114.233 18.5C119.509 18.5 123.351 14.7145 123.351 9.4995C123.351 4.28451 119.517 0.5 114.233 0.5ZM119.147 9.4995C119.147 12.4914 117.126 14.5806 114.233 14.5806C111.339 14.5806 109.318 12.4914 109.318 9.4995C109.318 6.50761 111.339 4.41843 114.233 4.41843C117.126 4.41843 119.147 6.50761 119.147 9.4995Z" fill="var(--fill-0, #333333)"/>
<path id="Vector_7" d="M4.05732 9.91714H0V18.1905H4.05732V9.91714Z" fill="var(--fill-0, #333333)"/>
<path id="Vector_8" d="M137.654 18.1905H142.265L137.519 11.2187C139.671 10.4875 141.321 8.50154 141.321 6.16437C141.321 3.2062 138.679 0.808517 135.721 0.808517H126.834V18.1905H130.74V11.5202H133.114L137.654 18.1905ZM130.74 4.47002H135.536C136.472 4.47002 137.231 5.22891 137.231 6.16437C137.231 7.09984 136.472 7.85872 135.536 7.85872H130.74V4.47002Z" fill="var(--fill-0, #333333)"/>
<path id="Vector_9" d="M160.59 0.809509H155.716L151.714 6.51158L147.713 0.809509H142.838L149.762 10.9796V18.1905H153.667V10.9796L160.59 0.809509Z" fill="var(--fill-0, #333333)"/>
</g>
<defs>
<clipPath id="clip0_6_675">
<rect width="161" height="19" fill="white"/>
</clipPath>
</defs>
</svg>
