<svg preserveAspectRatio="none" width="100%" height="100%" overflow="visible" style="display: block;" viewBox="0 0 13.4994 13.4994" fill="none" xmlns="http://www.w3.org/2000/svg">
<path id="Vector" d="M6.76322 3.26897C5.84424 3.26897 4.96291 3.63403 4.31309 4.28384C3.66328 4.93366 3.29822 5.81499 3.29822 6.73397C3.29568 7.18976 3.38357 7.64153 3.55679 8.06313C3.73001 8.48473 3.98513 8.86779 4.30737 9.19014C4.62962 9.51249 5.0126 9.76773 5.43414 9.94109C5.85569 10.1144 6.30743 10.2025 6.76322 10.2001C7.68219 10.2001 8.56353 9.83503 9.21334 9.18522C9.86316 8.53541 10.2282 7.65407 10.2282 6.73509C10.2229 5.81776 9.85614 4.93951 9.20747 4.29084C8.55881 3.64218 7.68055 3.27541 6.76322 3.27009V3.26897ZM6.76322 8.99522C6.4662 8.99566 6.17201 8.93747 5.89752 8.82398C5.62304 8.71048 5.37365 8.54392 5.16368 8.33384C4.9537 8.12376 4.78727 7.87429 4.67391 7.59975C4.56055 7.32521 4.5025 7.03099 4.50309 6.73397C4.50309 5.49872 5.49759 4.50422 6.76434 4.50422C7.99959 4.50422 8.99409 5.49872 8.99409 6.73509C8.99782 7.03047 8.94287 7.32364 8.83244 7.59762C8.72201 7.8716 8.55829 8.12094 8.35078 8.33117C8.14327 8.5414 7.89609 8.70835 7.62357 8.82234C7.35105 8.93633 7.05862 8.99509 6.76322 8.99522ZM11.1631 3.14859C11.1635 3.04165 11.1428 2.93569 11.1021 2.8368C11.0614 2.73792 11.0015 2.64807 10.9259 2.57246C10.8502 2.49684 10.7604 2.43694 10.6615 2.39622C10.5626 2.35551 10.4567 2.33477 10.3497 2.33522C10.2428 2.33477 10.1368 2.35551 10.0379 2.39622C9.93904 2.43694 9.8492 2.49684 9.77358 2.57246C9.69796 2.64807 9.63807 2.73792 9.59735 2.8368C9.55663 2.93569 9.5359 3.04165 9.53634 3.14859C9.5359 3.25553 9.55663 3.3615 9.59735 3.46039C9.63807 3.55927 9.69796 3.64911 9.77358 3.72473C9.8492 3.80035 9.93904 3.86025 10.0379 3.90096C10.1368 3.94168 10.2428 3.96242 10.3497 3.96197C10.4567 3.96242 10.5626 3.94168 10.6615 3.90096C10.7604 3.86025 10.8502 3.80035 10.9259 3.72473C11.0015 3.64911 11.0614 3.55927 11.1021 3.46039C11.1428 3.3615 11.1635 3.25553 11.1631 3.14859ZM13.4536 3.96197C13.3928 2.87747 13.1521 1.91334 12.368 1.12922C11.5861 0.346219 10.6208 0.105469 9.53747 0.0447187C8.42259 -0.0149063 5.07684 -0.0149063 3.96197 0.0447187C2.87747 0.105469 1.94372 0.346219 1.12922 1.12922C0.346219 1.91334 0.105469 2.87747 0.0447187 3.96197C-0.0149063 5.07684 -0.0149063 8.42259 0.0447187 9.53747C0.105469 10.622 0.346219 11.5557 1.12922 12.3702C1.94372 13.1532 2.87747 13.394 3.96197 13.4547C5.07684 13.5143 8.42259 13.5143 9.53747 13.4547C10.622 13.394 11.5861 13.1532 12.3702 12.3691C13.1532 11.5557 13.394 10.622 13.4547 9.53747C13.5143 8.42259 13.5143 5.07684 13.4547 3.96197H13.4536ZM12.0068 10.712C11.7965 11.315 11.3138 11.7672 10.7412 12.008C9.83784 12.3702 7.72847 12.2791 6.76322 12.2791C5.76872 12.2791 3.65934 12.3691 2.78634 12.0091C2.49245 11.8941 2.22557 11.7195 2.00252 11.4962C1.77946 11.273 1.60508 11.006 1.49034 10.712C1.12809 9.83897 1.21922 7.72959 1.21922 6.73509C1.21922 5.76984 1.12922 3.66047 1.48922 2.75709C1.73109 2.18447 2.18334 1.73334 2.78634 1.49147C3.65934 1.12922 5.76872 1.22034 6.76322 1.22034C7.72847 1.22034 9.83784 1.13034 10.7412 1.49034C11.3138 1.70184 11.765 2.18447 12.0068 2.75709C12.3691 3.66047 12.278 5.76984 12.278 6.73509C12.278 7.72959 12.368 9.83897 12.008 10.712H12.0068Z" fill="var(--fill-0, #4D595C)"/>
</svg>
