<svg preserveAspectRatio="none" width="100%" height="100%" overflow="visible" style="display: block;" viewBox="0 0 13.5 9.477" fill="none" xmlns="http://www.w3.org/2000/svg">
<path id="Vector" d="M13.2041 1.50525C13.1315 1.21678 12.9836 0.952778 12.7754 0.740277C12.5673 0.527776 12.3064 0.374408 12.0195 0.295875C10.9575 0 6.76125 0 6.76125 0C6.76125 0 2.5425 0 1.4805 0.295875C1.19359 0.374408 0.932705 0.527776 0.724553 0.740277C0.516401 0.952778 0.368459 1.21678 0.295875 1.50525C0 2.5425 0 4.76325 0 4.76325C0 4.76325 0 6.95925 0.295875 8.02125C0.444375 8.613 0.9135 9.05737 1.4805 9.20587C2.5425 9.477 6.76238 9.477 6.76238 9.477C6.76238 9.477 10.9586 9.477 12.0195 9.20587C12.3049 9.13255 12.5654 8.98394 12.7738 8.77556C12.9822 8.56718 13.1308 8.30668 13.2041 8.02125C13.5 6.95925 13.5 4.76325 13.5 4.76325C13.5 4.76325 13.5 2.5425 13.2041 1.50525ZM5.37975 6.76238V2.76413L8.88525 4.76325L5.37975 6.76238Z" fill="var(--fill-0, #4D595C)"/>
</svg>
