<svg preserveAspectRatio="none" width="100%" height="100%" overflow="visible" style="display: block;" viewBox="0 0 13.5 13.4719" fill="none" xmlns="http://www.w3.org/2000/svg">
<path id="Vector" d="M3.01387 13.4696V4.4595H0.2115V13.4707H3.01275L3.01387 13.4696ZM1.59638 3.25462C2.50088 3.25462 3.22425 2.50087 3.22425 1.5975C3.22425 0.723375 2.50087 0 1.5975 0C1.17473 0.00294626 0.770106 0.1722 0.471153 0.471153C0.1722 0.770106 0.00294626 1.17473 0 1.5975C0 2.50087 0.72225 3.25462 1.59638 3.25462ZM13.4696 13.4696H13.5V8.5275C13.5 6.11663 12.9577 4.24912 10.125 4.24912C8.76937 4.24912 7.86488 5.00287 7.47338 5.69475H7.443V4.46062H4.761V13.4719H7.56338V9.009C7.56338 7.83338 7.77488 6.7185 9.2205 6.7185C10.6673 6.7185 10.6976 8.04488 10.6976 9.099V13.4685L13.4696 13.4696Z" fill="var(--fill-0, #4D595C)"/>
</svg>
