<svg preserveAspectRatio="none" width="100%" height="100%" overflow="visible" style="display: block;" viewBox="0 0 11.8125 13.5001" fill="none" xmlns="http://www.w3.org/2000/svg">
<path id="Vector" d="M11.8125 5.53725V3.24225H11.7867C11.1668 3.24601 10.5602 3.0625 10.0463 2.71575C9.67759 2.48012 9.36103 2.17152 9.11609 1.80894C8.87115 1.44637 8.70301 1.0375 8.62203 0.6075C8.56916 0.421875 8.56916 0.237375 8.56916 0.052875V0H6.24941V9.22838C6.24587 9.75181 6.03637 10.2528 5.66623 10.6229C5.29609 10.9931 4.7951 11.2026 4.27166 11.2061C3.74822 11.2026 3.24722 10.9931 2.87709 10.6229C2.50695 10.2528 2.29745 9.75181 2.29391 9.22838C2.29391 8.14838 3.19053 7.25063 4.27166 7.25063C4.48203 7.25063 4.66653 7.27763 4.87803 7.35638V4.98375C4.66653 4.95787 4.48203 4.932 4.27053 4.932C1.89791 4.932 3.36282e-05 6.85575 3.36282e-05 9.2295C-0.00219914 9.79103 0.106774 10.3474 0.320666 10.8666C0.534558 11.3859 0.849137 11.8576 1.24625 12.2546C1.64337 12.6516 2.11517 12.966 2.63443 13.1798C3.15369 13.3936 3.71013 13.5024 4.27166 13.5C4.83467 13.503 5.39271 13.3947 5.91376 13.1814C6.43481 12.9681 6.90859 12.654 7.3079 12.2571C7.70721 11.8601 8.02419 11.3883 8.24063 10.8685C8.45708 10.3488 8.56872 9.79139 8.56916 9.22838V4.509C9.46578 5.16825 10.5728 5.53725 11.7867 5.53725H11.8125Z" fill="var(--fill-0, #4D595C)"/>
</svg>
