<svg preserveAspectRatio="none" width="100%" height="100%" overflow="visible" style="display: block;" viewBox="0 0 108 108" fill="none" xmlns="http://www.w3.org/2000/svg">
<g id="6841908c84842db313794075_Stat%204.svg">
<path id="Vector" d="M106.624 53.4264H2.67331V54.5898H106.624V53.4264Z" fill="var(--fill-0, #00BAE0)"/>
<path id="Vector_2" d="M8.79175 65.674C8.72988 65.674 8.66801 65.674 8.59841 65.674C6.67268 65.581 4.94035 64.1539 3.71067 61.6563C1.38279 56.9405 1.61473 49.665 4.22103 45.4379C5.50485 43.3591 7.21405 42.2656 8.97736 42.3431C10.8953 42.4362 12.6354 43.8633 13.8651 46.3609C16.1929 51.0767 15.9688 58.3521 13.3548 62.5793C12.1173 64.5882 10.5009 65.6819 8.79175 65.6819V65.674ZM8.784 43.4988C7.48473 43.4988 6.21637 44.3985 5.20324 46.0506C2.78255 49.9753 2.5815 56.7465 4.74697 61.1444C5.76784 63.2153 7.1908 64.4408 8.6525 64.5106C9.99819 64.5649 11.313 63.6729 12.3648 61.9665C14.7854 58.0418 14.9865 51.2706 12.821 46.8728C11.8002 44.8018 10.3772 43.5763 8.91552 43.5066C8.86911 43.5066 8.83041 43.5066 8.784 43.5066V43.4988Z" fill="var(--fill-0, #99E3F3)"/>
<path id="Vector_3" d="M19.2863 70.6216C18.0025 70.6216 16.7264 70.164 15.5276 69.2487C10.8641 65.7041 8.64453 56.0242 10.578 47.6708C11.7613 42.5594 14.298 38.8441 17.3761 37.7272C19.3018 37.0291 21.2662 37.3859 23.0681 38.751C27.7316 42.2957 29.9513 51.9754 28.0178 60.329C26.8346 65.4404 24.2978 69.1557 21.2275 70.2726C20.5856 70.5053 19.9359 70.6216 19.294 70.6216H19.2863ZM19.294 38.5493C18.7836 38.5493 18.2732 38.6424 17.7705 38.8208C15.0714 39.7981 12.8054 43.2109 11.7149 47.9345C9.87427 55.8846 11.9082 65.0293 16.2392 68.3258C17.7086 69.4427 19.3018 69.7374 20.8408 69.179C23.5399 68.2017 25.8059 64.7889 26.8964 60.0653C28.7371 52.1151 26.703 42.9704 22.3721 39.674C21.3821 38.9217 20.3459 38.5416 19.3018 38.5416L19.294 38.5493Z" fill="var(--fill-0, #73D9EE)"/>
<path id="Vector_4" d="M33.8479 77.1529C33.0203 77.1529 32.1927 77.0133 31.3729 76.7417C24.3893 74.3838 19.749 62.3073 21.0251 49.8196C21.8526 41.7686 25.0467 35.0361 29.3621 32.2594C31.5663 30.8322 33.9715 30.4986 36.2994 31.2821C43.283 33.64 47.9233 45.7165 46.6473 58.2042C45.8198 66.2552 42.6257 72.9877 38.3102 75.7644C36.8795 76.6875 35.3714 77.1529 33.8479 77.1529ZM33.8091 32.0189C32.5176 32.0189 31.2415 32.4223 29.9886 33.229C25.9671 35.8272 22.974 42.2262 22.1774 49.936C20.9477 61.9117 25.24 73.4376 31.7365 75.6326C33.7474 76.3151 35.7503 76.0281 37.676 74.7794C41.6976 72.181 44.6906 65.7821 45.4872 58.0724C46.7168 46.0966 42.4323 34.5708 35.9282 32.3758C35.2167 32.1353 34.5129 32.0189 33.8091 32.0189Z" fill="var(--fill-0, #4CCFE9)"/>
<path id="Vector_5" d="M50.1907 84.2266C49.7884 84.2266 49.3786 84.2033 48.9763 84.149C39.6958 82.97 32.658 68.5122 33.2999 51.9137C33.7175 41.0317 37.3911 31.3751 42.8822 26.7058C45.5116 24.472 48.4505 23.4792 51.3971 23.8592C60.6777 25.0381 67.7154 39.4959 67.0735 56.0944C66.6559 66.9765 62.9824 76.633 57.4914 81.3024C55.2254 83.2337 52.7196 84.2266 50.1907 84.2266ZM50.1907 24.9451C47.9324 24.9451 45.6896 25.8526 43.6323 27.5977C38.3811 32.0654 34.8622 41.404 34.4599 51.9681C33.8412 67.9771 40.4229 81.8996 49.1234 83.0088C51.7297 83.3423 54.3669 82.4503 56.7412 80.4259C61.9924 75.9583 65.5114 66.6197 65.9135 56.0556C66.5322 40.0466 59.9507 26.1241 51.2502 25.0149C50.8944 24.9684 50.5387 24.9451 50.1829 24.9451H50.1907Z" fill="var(--fill-0, #26C4E5)"/>
<path id="Vector_6" d="M70.5712 91.5485C59.0091 91.5485 49.6047 74.7097 49.6047 54.0003C49.6047 33.291 59.0091 16.452 70.5712 16.452C82.1332 16.452 91.5376 33.291 91.5376 54.0003C91.5376 74.7097 82.1332 91.5485 70.5712 91.5485ZM70.5712 17.6233C59.6509 17.6233 50.7648 33.9425 50.7648 54.008C50.7648 74.0736 59.6509 90.3928 70.5712 90.3928C81.4913 90.3928 90.3775 74.0736 90.3775 54.008C90.3775 33.9425 81.4913 17.6233 70.5712 17.6233Z" fill="var(--fill-0, #00BAE0)"/>
<path id="Vector_7" d="M106.627 54.5897C103.146 54.5897 100.316 51.7508 100.316 48.2606H101.476C101.476 51.1071 103.788 53.4263 106.627 53.4263V54.5897Z" fill="var(--fill-0, #00BAE0)"/>
<path id="Vector_8" d="M101.476 59.748H100.316C100.316 56.2576 103.146 53.4189 106.627 53.4189V54.5823C103.788 54.5823 101.476 56.9015 101.476 59.748Z" fill="var(--fill-0, #00BAE0)"/>
</g>
</svg>
