<svg preserveAspectRatio="none" width="100%" height="100%" overflow="visible" style="display: block;" viewBox="0 0 108 108" fill="none" xmlns="http://www.w3.org/2000/svg">
<g id="6841908c611bfffc6dc8c60b_Stat%202.svg">
<path id="Vector" d="M68.0151 43.2843H66.8551C66.8551 36.1718 61.0857 30.3934 54.0014 30.3934C46.9173 30.3934 41.1478 36.1796 41.1478 43.2843H39.9878C39.9878 35.5357 46.2754 29.2299 54.0014 29.2299C61.7275 29.2299 68.0151 35.5357 68.0151 43.2843Z" fill="var(--fill-0, #33C8E6)"/>
<path id="Vector_2" d="M74.8507 43.2845H73.6906C73.6906 32.3947 64.8586 23.5292 53.9925 23.5292C43.1265 23.5292 34.2945 32.387 34.2945 43.2845H33.1344C33.1344 31.751 42.4924 22.3658 53.9925 22.3658C65.4927 22.3658 74.8507 31.751 74.8507 43.2845Z" fill="var(--fill-0, #66D6EC)"/>
<path id="Vector_3" d="M27.0408 49.6914C26.5457 47.6049 26.2983 45.4486 26.2983 43.2846C26.2983 27.9659 38.7189 15.5092 53.9932 15.5092C69.2675 15.5092 81.688 27.9659 81.688 43.2846C81.688 45.4486 81.4405 47.6049 80.9456 49.6914L79.8164 49.4276C80.2882 47.4264 80.5279 45.3633 80.5279 43.2846C80.5279 28.6096 68.6255 16.6728 53.9932 16.6728C39.3607 16.6728 27.4583 28.6096 27.4583 43.2846C27.4583 45.3633 27.6981 47.4264 28.1699 49.4276L27.0408 49.6991V49.6914Z" fill="var(--fill-0, #99E3F3)"/>
<path id="Vector_4" d="M23.2363 59.0376C20.7306 54.1357 19.4623 48.8303 19.4623 43.2846C19.4623 24.1886 34.9531 8.65274 53.9937 8.65274C73.0344 8.65274 88.5253 24.1886 88.5253 43.2846C88.5253 48.6674 87.3266 53.8332 84.96 58.6189L83.9237 58.0992C86.2052 53.4686 87.3653 48.4813 87.3653 43.2768C87.3653 24.8246 72.3925 9.80843 53.9937 9.80843C35.5949 9.80843 20.6223 24.8246 20.6223 43.2768C20.6223 48.6365 21.8519 53.7634 24.265 58.5025L23.2286 59.0299L23.2363 59.0376Z" fill="var(--fill-0, #CCF1F9)"/>
<path id="Vector_5" d="M76.6143 99.3475H31.3869C30.4511 99.3475 29.5695 98.9365 28.9663 98.2151C28.363 97.5015 28.1078 96.5553 28.2625 95.6322L31.6112 75.9236H76.3823L79.7311 95.6322C79.8857 96.5553 79.6306 97.5015 79.0273 98.2151C78.4241 98.9365 77.5425 99.3475 76.6066 99.3475H76.6143ZM32.5934 77.0947L29.4071 95.8339C29.3066 96.4234 29.4689 97.0207 29.8556 97.4706C30.2346 97.9281 30.7992 98.1841 31.3869 98.1841H76.6143C77.2099 98.1841 77.7667 97.9204 78.1457 97.4706C78.5323 97.0129 78.687 96.4157 78.5942 95.8339L75.4079 77.0947H32.5934Z" fill="var(--fill-0, #BFEEF7)"/>
<path id="Vector_6" d="M82.583 92.2038H25.3991C24.5406 92.2038 23.744 91.816 23.218 91.1412C22.6921 90.4663 22.4988 89.5977 22.6999 88.7677L25.7702 75.9311H82.2194L85.2898 88.7677C85.4909 89.6054 85.2975 90.4663 84.7716 91.1412C84.2457 91.816 83.4492 92.2038 82.5907 92.2038H82.583ZM26.6828 77.0945L23.8213 89.0392C23.7053 89.5278 23.8213 90.032 24.1229 90.4198C24.4322 90.8154 24.8963 91.0404 25.3912 91.0404H82.5753C83.0779 91.0404 83.5342 90.8154 83.8436 90.4198C84.1529 90.0243 84.2612 89.5201 84.1452 89.0392L81.2837 77.0945H26.6673H26.6828Z" fill="var(--fill-0, #80DCEF)"/>
<path id="Vector_7" d="M86.9378 85.4869H21.0533C20.2644 85.4869 19.5451 85.1223 19.0812 84.4862C18.6171 83.8502 18.4856 83.0513 18.7176 82.299L20.7207 75.9311H87.2781L89.2812 82.299C89.5209 83.0513 89.3894 83.8502 88.9176 84.4862C88.4537 85.1223 87.7343 85.4869 86.9455 85.4869H86.9378ZM21.5637 77.0945L19.8159 82.648C19.6921 83.0435 19.7617 83.4624 20.0092 83.8037C20.2567 84.1372 20.6356 84.3311 21.0456 84.3311H86.9301C87.3476 84.3311 87.7266 84.1372 87.9663 83.8037C88.2138 83.4701 88.2835 83.0513 88.1597 82.648L86.4119 77.0945H21.5559H21.5637Z" fill="var(--fill-0, #40CBE8)"/>
<path id="Vector_8" d="M88.5858 77.0944H19.4067C18.525 77.0944 17.7052 76.6522 17.218 75.9154C16.7307 75.1785 16.6457 74.2555 16.986 73.4411L29.0353 44.6574C29.4452 43.6802 30.3964 43.0442 31.456 43.0442H76.5442C77.6037 43.0442 78.555 43.6802 78.9649 44.6574L91.0142 73.4411C91.3544 74.2555 91.2694 75.1785 90.7822 75.9154C90.295 76.6522 89.4751 77.0944 88.5935 77.0944H88.5858ZM31.456 44.2076C30.8682 44.2076 30.3346 44.5644 30.1026 45.1073L18.0533 73.891C17.8599 74.3486 17.9063 74.8527 18.1847 75.2716C18.4632 75.6905 18.904 75.9308 19.4067 75.9308H88.5858C89.0884 75.9308 89.5293 75.6905 89.8077 75.2716C90.0861 74.8527 90.1325 74.3486 89.9392 73.891L77.8899 45.1073C77.6578 44.5566 77.1319 44.2076 76.5365 44.2076H31.4483H31.456Z" fill="var(--fill-0, #00BAE0)"/>
<path id="Vector_9" d="M88.2243 67.7012H19.7722V68.8647H88.2243V67.7012Z" fill="var(--fill-0, #00BAE0)"/>
<path id="Vector_10" d="M84.7808 59.479H23.2117V60.6424H84.7808V59.479Z" fill="var(--fill-0, #00BAE0)"/>
<path id="Vector_11" d="M81.3415 51.2578H26.6556V52.4212H81.3415V51.2578Z" fill="var(--fill-0, #00BAE0)"/>
<path id="Vector_12" d="M66.5174 43.5102L65.382 43.749L72.2618 76.6333L73.3972 76.3944L66.5174 43.5102Z" fill="var(--fill-0, #00BAE0)"/>
<path id="Vector_13" d="M54.5789 43.6189H53.4189V76.5055H54.5789V43.6189Z" fill="var(--fill-0, #00BAE0)"/>
<path id="Vector_14" d="M41.4751 43.5028L34.6066 76.3895L35.742 76.628L42.6105 43.7414L41.4751 43.5028Z" fill="var(--fill-0, #00BAE0)"/>
<path id="Vector_15" d="M61.1769 43.2843H60.0168C60.0168 39.9568 57.3178 37.2499 53.9999 37.2499C50.6821 37.2499 47.9753 39.9568 47.9753 43.2843H46.8152C46.8152 39.3131 50.0403 36.0864 53.9999 36.0864C57.9596 36.0864 61.1769 39.3208 61.1769 43.2843Z" fill="var(--fill-0, #00BAE0)"/>
</g>
</svg>
