<svg preserveAspectRatio="none" width="100%" height="100%" overflow="visible" style="display: block;" viewBox="0 0 108 106.898" fill="none" xmlns="http://www.w3.org/2000/svg">
<g id="6841908c7a971df1c14356c7_Stat%201.svg">
<path id="Vector" d="M54.3675 94.8864C43.1612 94.8864 34.1823 73.5332 30.8336 64.3498L20.362 36.0237L21.4524 35.6205L31.924 63.9542C34.4684 70.9427 43.6021 93.7307 54.3675 93.7307V94.8941V94.8864Z" fill="var(--fill-0, #00BAE0)"/>
<path id="Vector_2" d="M54.3675 94.8865C49.7814 94.8865 46.0923 83.3296 42.0939 69.3683C41.0267 65.6374 40.0985 62.4109 39.3175 60.3244C38.7838 58.8972 38.3353 57.4158 37.9872 55.9266L31.4985 28.0117L32.6277 27.748L39.1164 55.6629C39.4567 57.1055 39.8898 58.5405 40.4002 59.9212C41.1968 62.0463 42.1249 65.2884 43.2076 69.0502C46.0227 78.8775 50.284 93.7308 54.3675 93.7308V94.8942V94.8865Z" fill="var(--fill-0, #00BAE0)"/>
<path id="Vector_3" d="M54.3683 94.8866C51.8703 94.8866 49.7666 84.3304 46.6035 55.9345C46.4101 54.1972 46.2478 52.7622 46.1318 51.7461L42.6438 19.9996L43.7962 19.8755L47.2842 51.6143C47.4078 52.6226 47.5625 54.0652 47.7558 55.8026C48.4287 61.8758 49.4496 71.0593 50.687 79.056C52.7674 92.5442 54.1363 93.6379 54.3914 93.7232L54.3683 94.8866Z" fill="var(--fill-0, #00BAE0)"/>
<path id="Vector_4" d="M54.9492 12.003H53.7891V94.3129H54.9492V12.003Z" fill="var(--fill-0, #00BAE0)"/>
<path id="Vector_5" d="M50.8919 16.3775V15.2141C52.485 15.2141 53.7766 13.7714 53.7766 12.003H54.9367C54.9367 14.4152 53.1192 16.3775 50.8919 16.3775Z" fill="var(--fill-0, #00BAE0)"/>
<path id="Vector_6" d="M57.8296 16.3775C55.5944 16.3775 53.7848 14.4152 53.7848 12.003H54.9448C54.9448 13.7714 56.2364 15.2141 57.8296 15.2141V16.3775Z" fill="var(--fill-0, #00BAE0)"/>
<path id="Vector_7" d="M40.2587 24.7385L40.1039 23.5828C41.6894 23.3733 42.8263 21.7678 42.6329 20.0071L43.7853 19.883C44.0482 22.2719 42.4627 24.4514 40.2587 24.7462V24.7385Z" fill="var(--fill-0, #00BAE0)"/>
<path id="Vector_8" d="M46.6482 23.8619C45.7975 23.8619 44.97 23.575 44.2661 23.0243C43.3613 22.3107 42.7581 21.2093 42.6266 20.0071L43.7789 19.883C43.8795 20.7827 44.3126 21.5971 44.9777 22.1169C45.5577 22.5744 46.277 22.7761 46.9808 22.6831L47.1354 23.8387C46.9731 23.8619 46.8029 23.8698 46.6405 23.8698L46.6482 23.8619Z" fill="var(--fill-0, #00BAE0)"/>
<path id="Vector_9" d="M29.7115 33.0533L29.4021 31.9287C30.9567 31.4942 31.9001 29.7413 31.498 28.0117L32.6271 27.748C33.1685 30.0748 31.8614 32.4561 29.7115 33.0533Z" fill="var(--fill-0, #00BAE0)"/>
<path id="Vector_10" d="M35.4196 31.3236C34.7468 31.3236 34.0739 31.1375 33.4707 30.7807C32.4885 30.199 31.7693 29.1906 31.4985 28.0117L32.6277 27.748C32.8288 28.6167 33.3547 29.3535 34.0585 29.7801C34.6927 30.1524 35.4196 30.2532 36.1156 30.0671L36.425 31.1917C36.0925 31.2848 35.7522 31.3313 35.4119 31.3313L35.4196 31.3236Z" fill="var(--fill-0, #00BAE0)"/>
<path id="Vector_11" d="M19.2237 41.2903L18.7519 40.2277C20.2523 39.5684 20.9715 37.6759 20.3605 36.0237L21.451 35.6205C22.2708 37.8465 21.2731 40.3906 19.2237 41.2903Z" fill="var(--fill-0, #00BAE0)"/>
<path id="Vector_12" d="M24.1206 38.7773C23.6178 38.7773 23.1229 38.6765 22.6434 38.4748C21.6071 38.0326 20.7795 37.1407 20.362 36.0237L21.4524 35.6205C21.7618 36.4503 22.3418 37.0786 23.0919 37.4044C23.7726 37.6913 24.515 37.6836 25.1878 37.3889L25.6596 38.4515C25.1647 38.6686 24.6465 38.7773 24.1283 38.7773H24.1206Z" fill="var(--fill-0, #00BAE0)"/>
<path id="Vector_13" d="M54.3659 94.8864V93.7228C65.1314 93.7228 74.2651 70.9348 76.8095 63.9542L87.2811 35.6205L88.3716 36.0237L77.9 64.3575C74.5589 73.5332 65.5722 94.8941 54.3737 94.8941L54.3659 94.8864Z" fill="var(--fill-0, #00BAE0)"/>
<path id="Vector_14" d="M54.3659 94.8865V93.7231C58.4494 93.7231 62.7108 78.8775 65.5258 69.0502C66.6008 65.2884 67.5366 62.0463 68.3333 59.921C68.8514 58.5405 69.2844 57.1133 69.617 55.6629L76.1057 27.748L77.2349 28.0117L70.7462 55.9266C70.3981 57.4236 69.9496 58.8972 69.4159 60.3244C68.6348 62.4031 67.7067 65.6297 66.6395 69.3683C62.6334 83.3296 58.952 94.8865 54.3659 94.8865Z" fill="var(--fill-0, #00BAE0)"/>
<path id="Vector_15" d="M54.3676 94.8866V93.7232H54.3444C54.5996 93.6379 55.9685 92.5442 58.0489 79.056C59.2786 71.0593 60.3072 61.8758 60.98 55.8026C61.1734 54.0652 61.3357 52.6226 61.4518 51.6065L64.9397 19.8755L66.092 19.9996L62.6041 51.7384C62.4804 52.7545 62.3257 54.1972 62.1324 55.9268C58.9769 84.3226 56.8656 94.8789 54.3676 94.8789V94.8866Z" fill="var(--fill-0, #00BAE0)"/>
<path id="Vector_16" d="M68.4723 24.7387C66.2604 24.4439 64.6827 22.2644 64.9457 19.8755L66.0981 19.9996C65.9047 21.7602 67.0416 23.3658 68.6271 23.5752L68.4723 24.7309V24.7387Z" fill="var(--fill-0, #00BAE0)"/>
<path id="Vector_17" d="M62.0758 23.8623C61.9134 23.8623 61.7433 23.8544 61.5808 23.8312L61.7356 22.6755C62.4393 22.7686 63.1585 22.5669 63.7386 22.1093C64.4037 21.5896 64.8368 20.7752 64.9373 19.8755L66.0896 19.9996C65.9581 21.2018 65.3627 22.3032 64.4501 23.0168C63.754 23.5675 62.9265 23.8544 62.068 23.8544L62.0758 23.8623Z" fill="var(--fill-0, #00BAE0)"/>
<path id="Vector_18" d="M79.0185 33.0533C76.8684 32.4561 75.5614 30.0748 76.1029 27.748L77.232 28.0117C76.8298 29.7413 77.7733 31.4942 79.3279 31.9287L79.0185 33.0533Z" fill="var(--fill-0, #00BAE0)"/>
<path id="Vector_19" d="M73.313 31.3239C72.9727 31.3239 72.6324 31.2773 72.2999 31.1842L72.6093 30.0596C73.3053 30.2534 74.0401 30.1526 74.6665 29.7726C75.3779 29.346 75.8961 28.6091 76.1049 27.7405L77.2341 28.0042C76.9634 29.1753 76.2441 30.1837 75.262 30.7732C74.6587 31.1299 73.9858 31.316 73.313 31.316V31.3239Z" fill="var(--fill-0, #00BAE0)"/>
<path id="Vector_20" d="M89.5022 41.2903C87.4528 40.3829 86.4551 37.8388 87.2748 35.6205L88.3653 36.0237C87.7543 37.6836 88.4736 39.5684 89.9739 40.2277L89.5022 41.2903Z" fill="var(--fill-0, #00BAE0)"/>
<path id="Vector_21" d="M84.6062 38.7773C84.088 38.7773 83.5698 38.6686 83.0749 38.4515L83.5467 37.3889C84.2195 37.6836 84.9619 37.6913 85.6426 37.4044C86.3927 37.0864 86.9806 36.4503 87.2899 35.6205L88.3804 36.0237C87.9704 37.1407 87.1352 38.0326 86.0988 38.4748C85.6193 38.6765 85.1244 38.7773 84.6217 38.7773H84.6062Z" fill="var(--fill-0, #00BAE0)"/>
<path id="Vector_22" d="M54.3662 88.511C43.825 88.511 28.1408 87.0916 28.1408 83.1824C28.1408 81.3519 31.5127 79.917 38.1561 78.9165L38.3262 80.0644C31.1879 81.1348 29.3008 82.5696 29.3008 83.1746C29.3008 84.912 38.8367 87.3398 54.3662 87.3398C69.8957 87.3398 79.4316 84.912 79.4316 83.1746C79.4316 82.5619 77.5444 81.127 70.4062 80.0644L70.5763 78.9165C77.2197 79.9093 80.5916 81.3442 80.5916 83.1824C80.5916 87.0916 64.9074 88.511 54.3662 88.511Z" fill="var(--fill-0, #80DCEF)"/>
<path id="Vector_23" d="M54.3636 75.6515C35.9957 75.6515 16.4832 73.0298 16.4832 68.1666C16.4832 65.0331 24.2635 63.2103 30.7986 62.233L30.9687 63.3809C21.1313 64.8547 17.6433 66.879 17.6433 68.1666C17.6433 71.1527 32.7243 74.4879 54.3636 74.4879C76.0028 74.4879 91.0838 71.1605 91.0838 68.1666C91.0838 66.879 87.5958 64.8547 77.7583 63.3809L77.9285 62.233C84.4559 63.2103 92.2439 65.0408 92.2439 68.1666C92.2439 73.0298 72.7237 75.6515 54.3636 75.6515Z" fill="var(--fill-0, #40CBE8)"/>
<path id="Vector_24" d="M54.3643 62.7911C41.2555 62.7911 28.9201 61.8449 19.6395 60.1308C12.8801 58.8819 4.82143 56.6559 4.82143 53.1578C4.82143 48.8221 17.1956 46.4253 24.5659 45.386L24.7283 46.5417C10.8925 48.4963 5.9815 51.335 5.9815 53.1655C5.9815 57.1755 25.8497 61.6432 54.3643 61.6432C67.4113 61.6432 79.6617 60.7047 88.8805 58.9983C99.1046 57.1058 102.747 54.7478 102.747 53.1655C102.747 51.335 97.8362 48.504 84.0004 46.5417L84.1628 45.386C91.5409 46.4253 103.907 48.8298 103.907 53.1578C103.907 56.6559 95.8486 58.8819 89.0892 60.1308C79.8087 61.8449 67.4732 62.7911 54.3643 62.7911Z" fill="var(--fill-0, #00BAE0)"/>
</g>
</svg>
