<svg preserveAspectRatio="none" width="100%" height="100%" overflow="visible" style="display: block;" viewBox="0 0 108 106.898" fill="none" xmlns="http://www.w3.org/2000/svg">
<g id="6841908cc9b4667c1262aa01_Stat%206.svg" clip-path="url(#clip0_9_731)">
<path id="Vector" d="M94.2889 72.4177H51.513C48.4195 72.4177 45.8982 69.8892 45.8982 66.7868V25.2828C45.8982 23.6694 46.5866 22.1337 47.793 21.0633L69.1848 2.06039C71.3039 0.175608 74.5134 0.175608 76.6325 2.06039L98.0243 21.0633C99.2307 22.1337 99.9191 23.6694 99.9191 25.2828V66.7868C99.9191 69.8892 97.3978 72.4177 94.3043 72.4177H94.2889ZM72.8971 1.81218C71.8375 1.81218 70.7857 2.18449 69.9427 2.93685L48.5511 21.9398C47.5998 22.7852 47.0506 24.0107 47.0506 25.2828V66.7868C47.0506 69.2532 49.046 71.2543 51.5053 71.2543H94.2811C96.7406 71.2543 98.7358 69.2532 98.7358 66.7868V25.2828C98.7358 24.003 98.1867 22.7852 97.2355 21.9398L75.8437 2.93685C75.0007 2.19225 73.9412 1.81218 72.8893 1.81218H72.8971Z" fill="var(--fill-0, #00BAE0)"/>
<path id="Vector_2" d="M84.6503 80.88H41.8745C38.7809 80.88 36.2597 78.3515 36.2597 75.249V33.745C36.2597 32.1317 36.948 30.596 38.1545 29.5255L59.5462 10.5226C61.6654 8.63786 64.8749 8.63786 66.9939 10.5226L88.3858 29.5255C89.5845 30.596 90.2805 32.1317 90.2805 33.745V75.249C90.2805 78.3515 87.7593 80.88 84.6657 80.88H84.6503ZM63.2585 10.2667C62.199 10.2667 61.1472 10.639 60.3042 11.3914L38.9124 30.3943C37.9611 31.2398 37.4121 32.4652 37.4121 33.7372V75.2412C37.4121 77.7076 39.4074 79.7088 41.8667 79.7088H84.6425C87.1019 79.7088 89.0973 77.7076 89.0973 75.2412V33.7372C89.0973 32.4574 88.5481 31.2398 87.5969 30.3943L66.2051 11.3914C65.3622 10.6467 64.3026 10.2667 63.2509 10.2667H63.2585Z" fill="var(--fill-0, #26C4E5)"/>
<path id="Vector_3" d="M75.0074 89.3347H32.2315C29.138 89.3347 26.6168 86.8062 26.6168 83.7036V42.1997C26.6168 40.5864 27.3052 39.0507 28.5117 37.9803L49.9034 18.9774C52.0225 17.0925 55.2321 17.0925 57.3511 18.9774L78.7428 37.9803C79.9493 39.0507 80.6377 40.5864 80.6377 42.1997V83.7036C80.6377 86.8062 78.1164 89.3347 75.0229 89.3347H75.0074ZM53.6233 18.7292C52.5638 18.7292 51.512 19.1015 50.6691 19.8538L29.2773 38.8567C28.326 39.7022 27.7769 40.9277 27.7769 42.1997V83.7036C27.7769 86.1702 29.7722 88.1713 32.2315 88.1713H75.0074C77.4668 88.1713 79.4621 86.1702 79.4621 83.7036V42.1997C79.4621 40.92 78.913 39.7022 77.9617 38.8567L56.57 19.8538C55.727 19.1092 54.6674 18.7292 53.6156 18.7292H53.6233Z" fill="var(--fill-0, #4CCFE9)"/>
<path id="Vector_4" d="M65.369 97.796H22.5931C19.4995 97.796 16.9783 95.2674 16.9783 92.1649V50.6609C16.9783 49.0475 17.6667 47.5118 18.8731 46.4414L40.2648 27.4385C42.3839 25.5538 45.5857 25.5538 47.7125 27.4385L69.1044 46.4414C70.3109 47.5118 70.9991 49.0475 70.9991 50.6609V92.1649C70.9991 95.2674 68.4778 97.796 65.3843 97.796H65.369ZM43.9849 27.1903C42.9254 27.1903 41.8735 27.5626 41.0305 28.315L19.6388 47.3179C18.6875 48.1634 18.1384 49.3888 18.1384 50.6609V92.1649C18.1384 94.6314 20.1337 96.6324 22.5931 96.6324H65.369C67.8283 96.6324 69.8237 94.6314 69.8237 92.1649V50.6609C69.8237 49.3811 69.2745 48.1634 68.3232 47.3179L46.9314 28.315C46.0885 27.5704 45.029 27.1903 43.9772 27.1903H43.9849Z" fill="var(--fill-0, #73D9EE)"/>
<path id="Vector_5" d="M55.7346 106.251H12.9588C9.8653 106.251 7.34407 103.722 7.34407 100.62V59.1156C7.34407 57.5023 8.03235 55.9666 9.23882 54.8962L30.6306 35.8932C32.7497 34.0084 35.9593 34.0084 38.0783 35.8932L59.4701 54.8962C60.6766 55.9666 61.3648 57.5023 61.3648 59.1156V100.62C61.3648 103.722 58.8436 106.251 55.75 106.251H55.7346ZM34.3506 35.6451C33.2911 35.6451 32.2392 36.0173 31.3963 36.7697L10.0045 55.7726C9.0532 56.6181 8.50414 57.8436 8.50414 59.1156V100.62C8.50414 103.086 10.4995 105.087 12.9588 105.087H55.7346C58.1939 105.087 60.1893 103.086 60.1893 100.62V59.1156C60.1893 57.8359 59.6402 56.6181 58.689 55.7726L37.2971 36.7697C36.4542 36.0252 35.3947 35.6451 34.3429 35.6451H34.3506Z" fill="var(--fill-0, #99E3F3)"/>
</g>
<defs>
<clipPath id="clip0_9_731">
<rect width="108" height="106.898" fill="white"/>
</clipPath>
</defs>
</svg>
