<svg preserveAspectRatio="none" width="100%" height="100%" overflow="visible" style="display: block;" viewBox="0 0 108 106.898" fill="none" xmlns="http://www.w3.org/2000/svg">
<g id="6841908cfd65352215562d11_Stat%203.svg">
<path id="Vector" d="M49.3865 76.9469L48.6364 76.6134L24.6924 14.6328C24.414 13.9192 24.4372 13.1126 24.7543 12.4145C25.0713 11.7242 25.6359 11.1967 26.3475 10.9408C30.2763 9.52918 34.3442 8.42778 38.4354 7.65215C43.3929 6.72915 48.4972 6.25602 53.6015 6.25602C62.9748 6.25602 72.1705 7.84606 80.9328 10.9719C81.6444 11.2278 82.2089 11.7474 82.526 12.4456C82.8431 13.1436 82.8663 13.9503 82.5879 14.6716L58.5588 76.6056L57.8087 76.9392C55.1559 75.8999 52.1011 75.8843 49.3942 76.9469H49.3865ZM53.6015 7.42721C48.5667 7.42721 43.532 7.8926 38.652 8.80008C34.6227 9.5602 30.6166 10.6538 26.7419 12.0422C26.3319 12.1896 25.9995 12.4921 25.8138 12.9031C25.6205 13.322 25.6128 13.7874 25.7752 14.214L49.5103 75.6594C52.1553 74.7597 55.0709 74.7674 57.6772 75.6516L81.4974 14.2528C81.6675 13.8262 81.6521 13.353 81.4587 12.9342C81.2731 12.5309 80.9405 12.2206 80.5306 12.0732C71.892 8.98624 62.8356 7.42721 53.5937 7.42721H53.6015Z" fill="var(--fill-0, #99E3F3)"/>
<path id="Vector_2" d="M80.7623 88.3955H65.2328V87.8138C65.2328 85.1843 64.382 82.7023 62.7656 80.6315C62.1315 79.817 61.3891 79.0957 60.5693 78.4829C59.7262 77.8391 58.7982 77.3195 57.8082 76.9317C55.1478 75.8924 52.1006 75.8768 49.3861 76.9394C48.3807 77.3349 47.445 77.8624 46.6097 78.5062C45.7822 79.1189 45.0629 79.8325 44.4673 80.6081C42.8356 82.6869 41.9772 85.1766 41.9772 87.806V88.3877H26.4475C25.7051 88.3877 24.9859 88.0697 24.4754 87.519C23.9728 86.976 23.7097 86.2392 23.7717 85.4947C24.2202 79.5532 26.4012 73.9377 30.0825 69.2607C31.7066 67.1898 33.5782 65.3593 35.6354 63.8158C37.8163 62.1559 40.2215 60.814 42.7737 59.8213C46.223 58.4795 49.8656 57.7969 53.6011 57.7969C57.3365 57.7969 60.9868 58.4795 64.4361 59.8213C66.9806 60.814 69.3858 62.1559 71.5822 63.8081C73.6703 65.3825 75.5497 67.2363 77.1738 69.315C80.8241 73.992 82.9896 79.592 83.4382 85.4947C83.4924 86.2315 83.2371 86.9683 82.7344 87.519C82.224 88.0697 81.5047 88.3877 80.7623 88.3877V88.3955ZM66.3774 87.232H80.7545C81.1799 87.232 81.5898 87.0536 81.8759 86.7357C82.1698 86.4253 82.309 86.0143 82.2781 85.5955C81.845 79.9178 79.7646 74.5427 76.2535 70.0441C74.6913 68.0507 72.8815 66.2667 70.8707 64.7466C68.7594 63.1565 66.4547 61.8612 64.0031 60.9149C60.693 59.6196 57.1818 58.9681 53.5856 58.9681C49.9893 58.9681 46.4937 59.6196 43.1836 60.9149C40.732 61.8689 38.4196 63.1642 36.316 64.7543C34.3361 66.2435 32.5418 68.0042 30.9719 69.9897C27.4375 74.4807 25.3416 79.8791 24.9085 85.5877C24.8776 86.0143 25.0169 86.4176 25.3108 86.7279C25.6046 87.0381 26.0067 87.2243 26.4321 87.2243H40.8093C40.9253 84.5484 41.8611 82.0198 43.5316 79.8945C44.189 79.0336 44.9856 78.2502 45.8904 77.5754C46.803 76.8697 47.8317 76.2956 48.9453 75.8536C51.9229 74.6823 55.2794 74.6979 58.2105 75.8458C59.3086 76.2724 60.3295 76.8463 61.2498 77.5522C62.1469 78.2192 62.9668 79.0104 63.6628 79.9101C65.3179 82.0354 66.2459 84.5561 66.3619 87.232H66.3774Z" fill="var(--fill-0, #26C4E5)"/>
<path id="Vector_3" d="M63.5775 80.7315L62.7654 80.6307C62.1313 79.8163 61.3887 79.095 60.569 78.4823C59.726 77.8385 58.798 77.3189 57.808 76.931C55.1476 75.8916 52.1004 75.8762 49.3859 76.9388C48.3805 77.3343 47.4447 77.8617 46.6095 78.5055C45.782 79.1183 45.0627 79.8318 44.4671 80.6075L43.6473 80.7083L18.3423 60.7669C17.77 60.317 17.4219 59.6732 17.3524 58.9519C17.2828 58.2228 17.507 57.5169 17.9865 56.9585C20.1984 54.3989 22.6733 52.0798 25.3569 50.0709C27.6384 48.3335 30.1054 46.8055 32.6963 45.518C34.0342 44.851 35.3026 44.2925 36.5709 43.8038C41.9847 41.6942 47.7076 40.6238 53.593 40.6238C59.4785 40.6238 65.217 41.7019 70.6462 43.8193C74.6832 45.3939 78.4574 47.5114 81.8757 50.102C84.5748 52.1263 87.0651 54.4688 89.277 57.0516C89.7488 57.6024 89.9808 58.3236 89.9034 59.0449C89.8339 59.7663 89.4781 60.4101 88.9057 60.86L63.562 80.7315H63.5775ZM53.6008 74.9842C55.2017 74.9842 56.7562 75.2789 58.2257 75.8529C59.3238 76.2795 60.3448 76.8535 61.2651 77.5592C62.0075 78.11 62.6958 78.7537 63.3144 79.4673L88.2097 59.9447C88.5268 59.6966 88.7278 59.3397 88.7665 58.9364C88.8052 58.5253 88.6814 58.1297 88.4108 57.8195C86.253 55.3065 83.8169 53.0261 81.1875 51.0405C77.8541 48.5119 74.1727 46.4487 70.2363 44.913C64.9386 42.8421 59.347 41.795 53.6008 41.795C47.8546 41.795 42.2785 42.8421 36.9963 44.8975C35.7512 45.3784 34.5214 45.9291 33.2144 46.5728C30.6933 47.8293 28.2802 49.3264 26.0529 51.0172C23.4389 52.9795 21.0182 55.2444 18.8604 57.7342C18.5898 58.0444 18.466 58.44 18.5047 58.8511C18.5434 59.2544 18.7367 59.6111 19.0538 59.8672L43.9104 79.4517C44.4904 78.7615 45.1632 78.141 45.9056 77.5826C46.8182 76.8767 47.8469 76.3028 48.9605 75.8606C50.4454 75.2789 52.0076 74.9842 53.6008 74.9842Z" fill="var(--fill-0, #4CCFE9)"/>
<path id="Vector_4" d="M46.6115 78.5139L45.7917 78.3975L16.1866 38.7861C15.7689 38.22 15.5833 37.4986 15.6993 36.8006C15.8076 36.1102 16.1788 35.5052 16.7434 35.1097C20.9815 32.1235 25.5755 29.657 30.3859 27.7799C37.7794 24.9024 45.5828 23.4442 53.5951 23.4442C60.6947 23.4442 67.6629 24.5999 74.2986 26.8647C75.157 27.1517 76.0155 27.4697 76.8584 27.8033C81.6303 29.6492 86.2164 32.108 90.4701 35.1097C91.0578 35.5285 91.4445 36.149 91.5604 36.8549C91.6688 37.5529 91.4986 38.251 91.0732 38.8172L61.3753 78.3589L60.5633 78.4674C59.728 77.8314 58.8077 77.3117 57.81 76.9239C55.1495 75.8845 52.1024 75.869 49.3879 76.9316C48.3825 77.3272 47.4467 77.8547 46.6115 78.4984V78.5139ZM53.6028 24.6077C45.7376 24.6077 38.0656 26.0425 30.8113 28.858C26.0859 30.6964 21.5771 33.124 17.4162 36.0559C17.1069 36.2731 16.9059 36.5989 16.8439 36.979C16.7821 37.3745 16.8749 37.7623 17.1146 38.0804L46.3717 77.2341C47.1683 76.6834 48.0344 76.218 48.9548 75.8535C51.9324 74.6823 55.2888 74.6979 58.2199 75.8458C59.1325 76.2026 59.991 76.6525 60.7876 77.2031L90.1452 38.1191C90.3772 37.8088 90.4778 37.421 90.4158 37.0332C90.354 36.6377 90.1375 36.2887 89.8049 36.0559C85.6286 33.1085 81.1275 30.6964 76.4409 28.8814C75.6133 28.5556 74.7704 28.2453 73.9273 27.9583C67.4078 25.7245 60.571 24.5999 53.5951 24.5999L53.6028 24.6077Z" fill="var(--fill-0, #73D9EE)"/>
<path id="Vector_5" d="M53.6026 100.634C46.557 100.634 40.8186 94.8869 40.8186 87.8133C40.8186 84.9201 41.7621 82.1822 43.5563 79.9018C44.2137 79.0408 45.0103 78.2575 45.9151 77.5827C46.8277 76.8768 47.8563 76.3029 48.97 75.8607C51.9476 74.6896 55.3039 74.705 58.2351 75.853C59.3333 76.2796 60.3543 76.8536 61.2746 77.5594C62.1716 78.2264 62.9914 79.0175 63.6875 79.9174C65.4586 82.1977 66.402 84.9279 66.402 87.821C66.402 94.8869 60.6636 100.642 53.6103 100.642L53.6026 100.634ZM49.3876 76.9467C48.3745 77.3422 47.4465 77.8696 46.6111 78.5135C45.7836 79.1262 45.0644 79.8398 44.4689 80.6154C42.8371 82.6941 41.9786 85.1838 41.9786 87.8133C41.9786 94.2432 47.1913 99.471 53.6026 99.471C60.0139 99.471 65.2343 94.2432 65.2343 87.8133C65.2343 85.1838 64.3835 82.7018 62.7672 80.6309C62.1329 79.8165 61.3905 79.0951 60.5707 78.4824C59.7277 77.8386 58.7997 77.319 57.8098 76.9312C55.1493 75.8918 52.1022 75.8763 49.3876 76.9389V76.9467Z" fill="var(--fill-0, #00BAE0)"/>
</g>
</svg>
