<svg preserveAspectRatio="none" width="100%" height="100%" overflow="visible" style="display: block;" viewBox="0 0 108 106.898" fill="none" xmlns="http://www.w3.org/2000/svg">
<g id="6841908c2b8dd3d5795b89fe_Stat%205.svg">
<path id="Vector" d="M92.4191 93.8672H15.5835V95.0306H92.4191V93.8672Z" fill="var(--fill-0, #00BAE0)"/>
<path id="Vector_2" d="M87.0913 85.1574H20.913V86.3209H87.0913V85.1574Z" fill="var(--fill-0, #00BAE0)"/>
<path id="Vector_3" d="M68.424 76.8125L67.3149 77.1537L75.306 103.285L76.4151 102.944L68.424 76.8125Z" fill="var(--fill-0, #00BAE0)"/>
<path id="Vector_4" d="M54.5789 77.0288H53.4189V103.16H54.5789V77.0288Z" fill="var(--fill-0, #00BAE0)"/>
<path id="Vector_5" d="M39.5195 76.8376L31.533 102.971L32.6421 103.312L40.6286 77.1786L39.5195 76.8376Z" fill="var(--fill-0, #00BAE0)"/>
<path id="Vector_6" d="M93.8415 103.741H14.1599C13.1467 103.741 12.2419 103.214 11.7469 102.322C11.2519 101.43 11.2752 100.383 11.8011 99.5218L25.1033 77.7654C25.6059 76.9509 26.5031 76.439 27.4621 76.439H80.5394C81.4906 76.439 82.3954 76.9432 82.8982 77.7654L96.2003 99.5218C96.7341 100.391 96.7495 101.438 96.2545 102.322C95.7595 103.206 94.8546 103.741 93.8415 103.741ZM27.4621 77.6102C26.9052 77.6102 26.387 77.9049 26.0932 78.3781L12.7911 100.135C12.4817 100.639 12.4739 101.244 12.7601 101.763C13.0462 102.275 13.5721 102.585 14.1599 102.585H93.8415C94.4293 102.585 94.9553 102.275 95.2413 101.763C95.5275 101.251 95.5198 100.639 95.2104 100.135L81.9083 78.3781C81.6221 77.9049 81.0962 77.6102 80.5394 77.6102H27.4621Z" fill="var(--fill-0, #00BAE0)"/>
<path id="Vector_7" d="M48.4812 9.27732V8.11389C51.2035 8.11389 53.4231 5.88782 53.4231 3.1576H54.5832C54.5832 6.5316 51.8454 9.27732 48.4812 9.27732Z" fill="var(--fill-0, #00BAE0)"/>
<path id="Vector_8" d="M59.5166 9.27732C56.1523 9.27732 53.4146 6.5316 53.4146 3.1576H54.5746C54.5746 5.88782 56.7942 8.11389 59.5166 8.11389V9.27732Z" fill="var(--fill-0, #00BAE0)"/>
<path id="Vector_9" d="M54.5746 5.9267H53.4146V77.0287H54.5746V5.9267Z" fill="var(--fill-0, #00BAE0)"/>
<path id="Vector_10" d="M27.2152 43.8786V42.7152C29.9376 42.7152 32.1572 40.4891 32.1572 37.7589H33.3172C33.3172 41.1329 30.5794 43.8786 27.2152 43.8786Z" fill="var(--fill-0, #73D9EE)"/>
<path id="Vector_11" d="M38.2592 43.8786C34.895 43.8786 32.1572 41.1329 32.1572 37.7589H33.3172C33.3172 40.4891 35.5369 42.7152 38.2592 42.7152V43.8786Z" fill="var(--fill-0, #73D9EE)"/>
<path id="Vector_12" d="M33.3172 40.528H32.1572V85.4369H33.3172V40.528Z" fill="var(--fill-0, #73D9EE)"/>
<path id="Vector_13" d="M71.8781 36.1761V35.0127C74.6003 35.0127 76.82 32.7867 76.82 30.0564H77.9801C77.9801 33.4304 75.2423 36.1761 71.8781 36.1761Z" fill="var(--fill-0, #4CCFE9)"/>
<path id="Vector_14" d="M82.9134 36.1761C79.5492 36.1761 76.8114 33.4304 76.8114 30.0564H77.9715C77.9715 32.7867 80.1911 35.0127 82.9134 35.0127V36.1761Z" fill="var(--fill-0, #4CCFE9)"/>
<path id="Vector_15" d="M77.9715 32.8255H76.8114V94.4959H77.9715V32.8255Z" fill="var(--fill-0, #4CCFE9)"/>
<path id="Vector_16" d="M58.1498 23.5027V22.3392C60.8722 22.3392 63.0918 20.1132 63.0918 17.3829H64.2518C64.2518 20.7569 61.514 23.5027 58.1498 23.5027Z" fill="var(--fill-0, #26C4E5)"/>
<path id="Vector_17" d="M69.1852 23.5027C65.821 23.5027 63.0832 20.7569 63.0832 17.3829H64.2432C64.2432 20.1132 66.4629 22.3392 69.1852 22.3392V23.5027Z" fill="var(--fill-0, #26C4E5)"/>
<path id="Vector_18" d="M64.2432 20.152H63.0832V86.1659H64.2432V20.152Z" fill="var(--fill-0, #26C4E5)"/>
<path id="Vector_19" d="M39.3722 59.5073V58.3439C42.0944 58.3439 44.3139 56.1179 44.3139 53.3876H45.4741C45.4741 56.7616 42.7364 59.5073 39.3722 59.5073Z" fill="var(--fill-0, #99E3F3)"/>
<path id="Vector_20" d="M50.4073 59.5073C47.0431 59.5073 44.3055 56.7616 44.3055 53.3876H45.4656C45.4656 56.1179 47.6851 58.3439 50.4073 58.3439V59.5073Z" fill="var(--fill-0, #99E3F3)"/>
<path id="Vector_21" d="M45.4656 56.1567H44.3055V102.927H45.4656V56.1567Z" fill="var(--fill-0, #99E3F3)"/>
</g>
</svg>
